<?xml version="1.0" encoding="UTF-8"?><svg id="a" xmlns="http://www.w3.org/2000/svg" width="13" height="13" viewBox="0 0 13 13"><defs><style>.b{fill:#c99681;}.b,.c,.d{stroke-width:0px;}.c{fill:#404040;}.d{fill:#fff;opacity:.9;}</style></defs><path class="d" d="M11,1c.55,0,1,.45,1,1v9c0,.55-.45,1-1,1H2c-.55,0-1-.45-1-1V2c0-.55.45-1,1-1h9"/><path class="b" d="M11,1c.55,0,1,.45,1,1v9c0,.55-.45,1-1,1H2c-.55,0-1-.45-1-1V2c0-.55.45-1,1-1h9M11,0H2C.9,0,0,.9,0,2v9c0,1.1.9,2,2,2h9c1.1,0,2-.9,2-2V2c0-1.1-.9-2-2-2h0Z"/><path class="c" d="M2.87,9.26v-.84h1.37v-3.91h-.06l-1.08,1.42-.58-.54,1.23-1.62h1.42v4.65h1.14v.84h-3.43Z"/><path class="c" d="M8.64,9.36c-.32,0-.59-.06-.83-.19-.23-.13-.43-.31-.58-.55-.15-.24-.26-.54-.34-.89-.07-.35-.11-.75-.11-1.2s.04-.85.11-1.2.19-.65.34-.89c.15-.24.34-.43.58-.56.23-.13.51-.19.83-.19.63,0,1.1.25,1.4.75.3.5.45,1.2.45,2.09s-.15,1.6-.45,2.1c-.3.5-.77.75-1.4.75ZM8.64,8.48c.32,0,.54-.13.67-.4.13-.26.19-.62.19-1.08v-.99c0-.45-.06-.81-.19-1.07s-.35-.4-.67-.4-.54.13-.67.4-.19.62-.19,1.07v.99c0,.45.06.81.19,1.08.13.27.35.4.67.4Z"/></svg>