<?xml version="1.0" encoding="UTF-8"?><svg id="a" xmlns="http://www.w3.org/2000/svg" width="13" height="13" viewBox="0 0 13 13"><defs><style>.b{fill:#c99681;}.b,.c,.d{stroke-width:0px;}.c{fill:#404040;}.d{fill:#fff;opacity:.9;}</style></defs><path class="d" d="M11,1c.55,0,1,.45,1,1v9c0,.55-.45,1-1,1H2c-.55,0-1-.45-1-1V2c0-.55.45-1,1-1h9"/><path class="b" d="M11,1c.55,0,1,.45,1,1v9c0,.55-.45,1-1,1H2c-.55,0-1-.45-1-1V2c0-.55.45-1,1-1h9M11,0H2C.9,0,0,.9,0,2v9c0,1.1.9,2,2,2h9c1.1,0,2-.9,2-2V2c0-1.1-.9-2-2-2h0Z"/><path class="c" d="M5.01,9.26v-.84h1.37v-3.91h-.06l-1.08,1.42-.58-.54,1.23-1.62h1.42v4.65h1.14v.84h-3.43Z"/></svg>