<?xml version="1.0" encoding="UTF-8"?><svg id="a" xmlns="http://www.w3.org/2000/svg" width="13" height="13" xmlns:xlink="http://www.w3.org/1999/xlink" viewBox="0 0 13 13"><defs><style>.c{fill:url(#b);}.c,.d,.e{stroke-width:0px;}.d{fill:#404040;}.e{fill:#fff;opacity:.9;}</style><linearGradient id="b" x1="0" y1="6.5" x2="13" y2="6.5" gradientUnits="userSpaceOnUse"><stop offset="0" stop-color="#d79330"/><stop offset=".5" stop-color="#fbc477"/><stop offset="1" stop-color="#d79330"/></linearGradient></defs><path class="e" d="M11,1c.55,0,1,.45,1,1v9c0,.55-.45,1-1,1H2c-.55,0-1-.45-1-1V2c0-.55.45-1,1-1h9"/><path class="c" d="M11,1c.55,0,1,.45,1,1v9c0,.55-.45,1-1,1H2c-.55,0-1-.45-1-1V2c0-.55.45-1,1-1h9M11,0H2C.9,0,0,.9,0,2v9c0,1.1.9,2,2,2h9c1.1,0,2-.9,2-2V2c0-1.1-.9-2-2-2h0Z"/><path class="d" d="M6.12,9.26h-3.45v-.96l1.56-1.51c.27-.26.46-.49.58-.7.12-.21.19-.43.19-.67v-.1c0-.24-.07-.43-.21-.56-.14-.13-.32-.19-.52-.19-.26,0-.45.08-.58.24-.13.16-.23.35-.29.58l-.81-.35c.05-.18.13-.36.22-.52.09-.17.21-.31.36-.44.14-.13.31-.23.51-.3s.42-.11.67-.11.49.04.7.12c.2.08.38.2.52.34s.25.32.32.52c.07.2.11.42.11.65s-.03.44-.1.63-.16.37-.27.54c-.11.17-.25.33-.4.49-.15.16-.31.31-.48.47l-1.05.95h2.43v.87Z"/><path class="d" d="M8.66,9.36c-.28,0-.54-.05-.76-.15-.22-.1-.41-.25-.57-.43s-.28-.41-.36-.68c-.08-.26-.12-.56-.12-.89,0-.39.05-.76.16-1.11.11-.35.25-.67.42-.96.17-.29.36-.55.57-.78.21-.23.42-.42.63-.58h1.27c-.29.23-.56.46-.79.67s-.43.43-.61.66c-.17.22-.32.45-.43.69s-.2.5-.25.78l.06.02c.05-.11.1-.21.17-.31.06-.1.14-.19.23-.26.09-.08.19-.14.31-.18.12-.05.26-.07.41-.07.2,0,.4.04.57.12s.33.19.46.34c.13.15.23.33.31.54.07.21.11.44.11.7,0,.28-.04.53-.13.76-.09.23-.21.43-.36.6-.16.17-.35.3-.57.39-.22.09-.47.14-.74.14ZM8.66,8.55c.26,0,.47-.08.62-.24.15-.16.22-.39.22-.69v-.12c0-.3-.07-.53-.22-.69-.15-.16-.36-.24-.62-.24s-.47.08-.62.24c-.15.16-.22.39-.22.69v.12c0,.3.07.53.22.69.15.16.35.24.62.24Z"/></svg>