<svg xmlns="ht100.svgtp://www.w3.org/2000/svg" width="13" height="13" viewBox="0 0 13 13" overflow="hidden" preserveAspectRatio="xMidYMid meet" id="eaf-3cf7-0"><defs><clipPath id="eaf-3cf7-1"><rect x="0" y="0" width="13" height="13"></rect></clipPath><linearGradient gradientUnits="userSpaceOnUse" x1="6.5" y1="13" x2="6.5" y2="0" id="eaf-3cf7-2"><stop stop-color="#3061e6" offset="0"><animate keyTimes="0;0.3333;0.6667;1" calcMode="linear" dur="3000ms" repeatCount="indefinite" attributeName="stop-color" values="#3061e6;#30e633;#e63061;#3061e6"></animate></stop><stop stop-color="#73e8fa" offset="0.96"><animate keyTimes="0;0.3333;0.6667;1" calcMode="linear" dur="3000ms" repeatCount="indefinite" attributeName="stop-color" values="#73e8fa;#f8fa73;#fa73e3;#72e7f9"></animate></stop></linearGradient></defs><g clip-path="url('#eaf-3cf7-1')" style="isolation: isolate;"><g><path fill="#fff" d="m11 1c0.55 0 1 0.45 1 1l0 9c0 0.55 -0.45 1 -1 1l-9 0c-0.55 0 -1 -0.45 -1 -1l0 -9c0 -0.55 0.45 -1 1 -1l9 0" opacity="0.9"></path><path d="M0.682983 7L0.682983 6.198L2.12219 6.198L2.12219 2.47729L2.05444 2.47729L0.915527 3.82678L0.300293 3.31042L1.59668 1.76501L3.09082 1.76501L3.09082 6.198L4.29016 6.198L4.29016 7L0.682983 7ZM6.75032 7.08972Q6.24678 7.08972 5.87874 6.90662Q5.51253 6.72168 5.27266 6.37744Q5.03279 6.0332 4.9156 5.53149Q4.80025 5.02795 4.80025 4.38159Q4.80025 3.74438 4.9156 3.23901Q5.03279 2.73181 5.27266 2.38757Q5.51253 2.04333 5.87874 1.86023Q6.24678 1.67529 6.75032 1.67529Q7.74825 1.67529 8.22432 2.38757Q8.70039 3.09985 8.70039 4.38159Q8.70039 5.66516 8.22432 6.37744Q7.74825 7.08972 6.75032 7.08972ZM6.75032 6.25659Q7.25203 6.25659 7.44978 5.87939Q7.64937 5.50037 7.64937 4.85583L7.64937 3.90918Q7.64937 3.26465 7.44978 2.88745Q7.25203 2.50842 6.75032 2.50842Q6.24678 2.50842 6.0472 2.88745Q5.84944 3.26465 5.84944 3.90918L5.84944 4.85583Q5.84944 5.50037 6.0472 5.87939Q6.24678 6.25659 6.75032 6.25659ZM11.2503 7.08972Q10.7467 7.08972 10.3787 6.90662Q10.0125 6.72168 9.77261 6.37744Q9.53275 6.0332 9.41556 5.53149Q9.3002 5.02795 9.3002 4.38159Q9.3002 3.74438 9.41556 3.23901Q9.53275 2.73181 9.77261 2.38757Q10.0125 2.04333 10.3787 1.86023Q10.7467 1.67529 11.2503 1.67529Q12.2482 1.67529 12.7243 2.38757Q13.2003 3.09985 13.2003 4.38159Q13.2003 5.66516 12.7243 6.37744Q12.2482 7.08972 11.2503 7.08972ZM11.2503 6.25659Q11.752 6.25659 11.9497 5.87939Q12.1493 5.50037 12.1493 4.85583L12.1493 3.90918Q12.1493 3.26465 11.9497 2.88745Q11.752 2.50842 11.2503 2.50842Q10.7467 2.50842 10.5471 2.88745Q10.3494 3.26465 10.3494 3.90918L10.3494 4.85583Q10.3494 5.50037 10.5471 5.87939Q10.7467 6.25659 11.2503 6.25659Z" fill="#334155" transform="translate(2 2.17)"><animateTransform attributeName="transform" type="translate" from="0 0" to="0 0" calcMode="discrete" dur="3000ms" repeatCount="indefinite"></animateTransform><animateMotion keyTimes="0;0.5;1" calcMode="linear" dur="3000ms" repeatCount="indefinite" attributeName="transform" keyPoints="0;0.5;1" path="m2 2.17l-4.4999 0l4.4999 0" additive="sum"></animateMotion></path><path fill="url('#eaf-3cf7-2')" d="m10.83 0l-8.66 0c-1.2 0 -2.17 0.97 -2.17 2.17l0 8.67c0 1.2 0.97 2.17 2.17 2.17l8.67 0c1.2 0 2.17 -0.97 2.17 -2.17l0 -8.67c0 -1.2 -0.97 -2.17 -2.17 -2.17l-0.01 0zm-4.33 11.92l-5.42 -1.83l0 -7.19c0 0 5.42 -1.82 5.42 -1.82l5.42 1.83l0 7.18c0 0 -5.41 1.82 -5.41 1.82l0 0l-0.01 0.01z"></path></g></g></svg>