<?xml version="1.0" encoding="UTF-8"?><svg id="a" xmlns="http://www.w3.org/2000/svg" width="13" height="13" xmlns:xlink="http://www.w3.org/1999/xlink" viewBox="0 0 13 13"><defs><style>.c{fill:url(#b);}.c,.d,.e{stroke-width:0px;}.d{fill:#404040;}.e{fill:#fff;opacity:.9;}</style><linearGradient id="b" x1="0" y1="6.5" x2="13" y2="6.5" gradientUnits="userSpaceOnUse"><stop offset="0" stop-color="#d79330"/><stop offset=".5" stop-color="#fbc477"/><stop offset="1" stop-color="#d79330"/></linearGradient></defs><path class="e" d="M11,1c.55,0,1,.45,1,1v9c0,.55-.45,1-1,1H2c-.55,0-1-.45-1-1V2c0-.55.45-1,1-1h9"/><path class="c" d="M11,1c.55,0,1,.45,1,1v9c0,.55-.45,1-1,1H2c-.55,0-1-.45-1-1V2c0-.55.45-1,1-1h9M11,0H2C.9,0,0,.9,0,2v9c0,1.1.9,2,2,2h9c1.1,0,2-.9,2-2V2c0-1.1-.9-2-2-2h0Z"/><path class="d" d="M4.09,5.99c.29,0,.5-.06.63-.19.14-.13.2-.29.2-.49v-.06c0-.23-.06-.4-.2-.53-.13-.13-.31-.19-.54-.19s-.41.06-.58.17c-.17.12-.31.28-.44.49l-.6-.6c.09-.13.18-.25.28-.36s.22-.21.35-.29c.13-.08.28-.15.45-.19.17-.05.35-.07.56-.07.25,0,.48.03.69.1.21.07.38.16.53.29.15.13.26.28.35.45.08.18.12.37.12.59,0,.18-.02.34-.07.48-.05.14-.12.27-.21.37s-.19.19-.31.26c-.12.07-.24.11-.37.15v.05c.14.03.28.08.41.15.13.07.24.16.33.27.09.11.17.25.22.4s.08.33.08.52c0,.24-.04.46-.13.66s-.21.37-.37.51-.35.25-.58.33-.47.11-.75.11c-.24,0-.46-.03-.64-.08-.19-.05-.35-.13-.49-.22-.14-.09-.26-.2-.37-.33-.1-.12-.19-.25-.27-.39l.69-.58c.06.11.12.21.19.3s.14.17.23.24.18.12.29.16c.11.04.23.06.37.06.28,0,.49-.07.63-.22.15-.15.22-.35.22-.61v-.05c0-.25-.08-.44-.24-.58s-.39-.2-.69-.2h-.49v-.87h.49Z"/><path class="d" d="M10.39,9.26h-3.45v-.96l1.56-1.51c.27-.26.46-.49.58-.7.12-.21.19-.43.19-.67v-.1c0-.24-.07-.43-.21-.56-.14-.13-.32-.19-.52-.19-.26,0-.45.08-.58.24-.13.16-.23.35-.29.58l-.81-.35c.05-.18.13-.36.22-.52.09-.17.21-.31.36-.44.14-.13.31-.23.51-.3s.42-.11.67-.11.49.04.7.12c.2.08.38.2.52.34s.25.32.32.52c.07.2.11.42.11.65s-.03.44-.1.63-.16.37-.27.54c-.11.17-.25.33-.4.49-.15.16-.31.31-.48.47l-1.05.95h2.43v.87Z"/></svg>