<?xml version="1.0" encoding="UTF-8"?><svg id="a" xmlns="http://www.w3.org/2000/svg" width="13" height="13" xmlns:xlink="http://www.w3.org/1999/xlink" viewBox="0 0 13 13"><defs><style>.c{fill:url(#b);}.c,.d,.e{stroke-width:0px;}.d{fill:#404040;}.e{fill:#fff;opacity:.9;}</style><linearGradient id="b" x1="6.5" y1="13" x2="6.5" y2="0" gradientUnits="userSpaceOnUse"><stop offset="0" stop-color="#7199d1"/><stop offset="1" stop-color="#d6dfff"/></linearGradient></defs><path class="e" d="M11,1c.55,0,1,.45,1,1v9c0,.55-.45,1-1,1H2c-.55,0-1-.45-1-1V2c0-.55.45-1,1-1h9"/><path class="c" d="M10.83,0H2.17C.97,0,0,.97,0,2.17v8.67c0,1.2.97,2.17,2.17,2.17h8.67c1.2,0,2.17-.97,2.17-2.17V2.17c0-1.2-.97-2.17-2.17-2.17ZM6.5,11.92l-5.42-1.83V2.9s5.42-1.82,5.42-1.82l5.42,1.83v7.18s-5.41,1.82-5.41,1.82h0Z"/><path class="d" d="M4.71,9.26v-1.06h-2.25v-.89l1.98-3.54h1.16v3.62h.65v.81h-.65v1.06h-.89ZM3.22,7.39h1.48v-2.61h-.06l-1.42,2.61Z"/><path class="d" d="M8.64,9.36c-.32,0-.59-.06-.83-.19-.23-.13-.43-.31-.58-.55-.15-.24-.26-.54-.34-.89-.07-.35-.11-.75-.11-1.2s.04-.85.11-1.2.19-.65.34-.89c.15-.24.34-.43.58-.56.23-.13.51-.19.83-.19.63,0,1.1.25,1.4.75.3.5.45,1.2.45,2.09s-.15,1.6-.45,2.1c-.3.5-.77.75-1.4.75ZM8.64,8.48c.32,0,.54-.13.67-.4.13-.26.19-.62.19-1.08v-.99c0-.45-.06-.81-.19-1.07s-.35-.4-.67-.4-.54.13-.67.4-.19.62-.19,1.07v.99c0,.45.06.81.19,1.08.13.27.35.4.67.4Z"/></svg>