<?xml version="1.0" encoding="UTF-8"?><svg id="a" xmlns="http://www.w3.org/2000/svg" width="13" height="13" xmlns:xlink="http://www.w3.org/1999/xlink" viewBox="0 0 13 13"><defs><style>.c{fill:url(#b);}.c,.d,.e{stroke-width:0px;}.d{fill:#404040;}.e{fill:#fff;opacity:.9;}</style><linearGradient id="b" x1="6.5" y1="13" x2="6.5" y2="0" gradientUnits="userSpaceOnUse"><stop offset="0" stop-color="#4fb9bd"/><stop offset="1" stop-color="#b5e8e6"/></linearGradient></defs><path class="e" d="M11,1c.55,0,1,.45,1,1v9c0,.55-.45,1-1,1H2c-.55,0-1-.45-1-1V2c0-.55.45-1,1-1h9"/><path class="c" d="M10.83,0H2.17C.97,0,0,.97,0,2.17v8.67c0,1.2.97,2.17,2.17,2.17h8.67c1.2,0,2.17-.97,2.17-2.17V2.17c0-1.2-.97-2.17-2.17-2.17ZM6.5,11.92l-5.42-1.83V2.9s5.42-1.82,5.42-1.82l5.42,1.83v7.18s-5.41,1.82-5.41,1.82h0Z"/><path class="d" d="M5.9,4.66h-2.24l-.11,1.84h.05c.05-.12.11-.22.17-.32.06-.1.13-.18.21-.25.08-.07.17-.12.28-.16.11-.04.24-.06.39-.06.21,0,.41.04.6.12s.35.19.48.34c.14.15.24.33.32.55.08.22.12.46.12.73s-.04.53-.12.76c-.08.23-.2.43-.36.6-.16.17-.35.3-.58.4-.23.09-.49.14-.78.14-.23,0-.43-.03-.61-.08-.18-.05-.34-.13-.48-.22-.14-.09-.26-.2-.36-.33-.1-.12-.19-.25-.26-.39l.68-.58c.06.1.12.2.18.29.06.09.13.17.22.24s.18.12.28.16c.1.04.22.06.36.06.28,0,.49-.09.64-.26.15-.17.22-.41.22-.71v-.06c0-.28-.07-.51-.22-.67-.15-.16-.35-.24-.61-.24-.2,0-.37.04-.5.13-.13.09-.23.18-.31.28l-.77-.12.19-3.09h2.93v.9Z"/><path class="d" d="M10.39,9.26h-3.45v-.96l1.56-1.51c.27-.26.46-.49.58-.7.12-.21.19-.43.19-.67v-.1c0-.24-.07-.43-.21-.56-.14-.13-.32-.19-.52-.19-.26,0-.45.08-.58.24-.13.16-.23.35-.29.58l-.81-.35c.05-.18.13-.36.22-.52.09-.17.21-.31.36-.44.14-.13.31-.23.51-.3s.42-.11.67-.11.49.04.7.12c.2.08.38.2.52.34s.25.32.32.52c.07.2.11.42.11.65s-.03.44-.1.63-.16.37-.27.54c-.11.17-.25.33-.4.49-.15.16-.31.31-.48.47l-1.05.95h2.43v.87Z"/></svg>