<?xml version="1.0" encoding="UTF-8"?><svg id="a" xmlns="http://www.w3.org/2000/svg" width="13" height="13" xmlns:xlink="http://www.w3.org/1999/xlink" viewBox="0 0 13 13"><defs><style>.c{fill:url(#b);}.c,.d,.e{stroke-width:0px;}.d{fill:#404040;}.e{fill:#fff;opacity:.9;}</style><linearGradient id="b" x1="6.5" y1="13" x2="6.5" y2="0" gradientUnits="userSpaceOnUse"><stop offset="0" stop-color="#cf5063"/><stop offset="1" stop-color="#d4b1ff"/></linearGradient></defs><path class="e" d="M11,1c.55,0,1,.45,1,1v9c0,.55-.45,1-1,1H2c-.55,0-1-.45-1-1V2c0-.55.45-1,1-1h9"/><path class="c" d="M10.83,0H2.17C.97,0,0,.97,0,2.17v8.67c0,1.2.97,2.17,2.17,2.17h8.67c1.2,0,2.17-.97,2.17-2.17V2.17c0-1.2-.97-2.17-2.17-2.17ZM6.5,11.92l-5.42-1.83V2.9s5.42-1.82,5.42-1.82l5.42,1.83v7.18s-5.41,1.82-5.41,1.82h0Z"/><path class="d" d="M4.36,9.36c-.29,0-.55-.04-.77-.12-.23-.08-.42-.19-.57-.33s-.27-.31-.35-.5c-.08-.19-.12-.41-.12-.64,0-.36.09-.65.27-.87s.42-.38.72-.47v-.06c-.25-.1-.45-.25-.6-.46s-.23-.48-.23-.8c0-.21.04-.4.11-.57s.18-.32.32-.45.32-.22.52-.3.44-.11.71-.11.5.04.71.11c.21.07.38.17.52.3s.25.28.32.45.11.36.11.57c0,.32-.08.59-.23.8s-.35.37-.6.46v.06c.3.09.54.25.72.47.18.22.27.51.27.87,0,.23-.04.44-.12.64-.08.19-.2.36-.35.5s-.34.25-.57.33c-.23.08-.48.12-.77.12ZM4.36,8.55c.27,0,.48-.07.62-.2.15-.14.22-.33.22-.58v-.17c0-.25-.07-.44-.22-.57-.14-.14-.35-.21-.62-.21s-.48.07-.62.21c-.15.14-.22.33-.22.57v.17c0,.25.07.44.22.58.14.14.35.2.62.2ZM4.36,6.05c.25,0,.44-.06.58-.19.13-.13.2-.3.2-.54v-.13c0-.23-.07-.4-.2-.53-.13-.13-.33-.19-.58-.19s-.44.06-.58.19c-.13.13-.2.3-.2.53v.13c0,.23.07.41.2.54.13.13.33.19.58.19Z"/><path class="d" d="M8.37,5.99c.29,0,.5-.06.63-.19.14-.13.2-.29.2-.49v-.06c0-.23-.06-.4-.2-.53-.13-.13-.31-.19-.54-.19s-.41.06-.58.17c-.17.12-.31.28-.44.49l-.6-.6c.09-.13.18-.25.28-.36s.22-.21.35-.29c.13-.08.28-.15.45-.19.17-.05.35-.07.56-.07.25,0,.48.03.69.1.21.07.38.16.53.29.15.13.26.28.35.45.08.18.12.37.12.59,0,.18-.02.34-.07.48-.05.14-.12.27-.21.37s-.19.19-.31.26c-.12.07-.24.11-.37.15v.05c.14.03.28.08.41.15.13.07.24.16.33.27.09.11.17.25.22.4s.08.33.08.52c0,.24-.04.46-.13.66s-.21.37-.37.51-.35.25-.58.33-.47.11-.75.11c-.24,0-.46-.03-.64-.08-.19-.05-.35-.13-.49-.22-.14-.09-.26-.2-.37-.33-.1-.12-.19-.25-.27-.39l.69-.58c.06.11.12.21.19.3s.14.17.23.24.18.12.29.16c.11.04.23.06.37.06.28,0,.49-.07.63-.22.15-.15.22-.35.22-.61v-.05c0-.25-.08-.44-.24-.58s-.39-.2-.69-.2h-.49v-.87h.49Z"/></svg>