<?xml version="1.0" encoding="UTF-8"?><svg id="a" xmlns="http://www.w3.org/2000/svg" width="13" height="13" xmlns:xlink="http://www.w3.org/1999/xlink" viewBox="0 0 13 13"><defs><style>.c{fill:url(#b);}.c,.d,.e{stroke-width:0px;}.d{fill:#404040;}.e{fill:#fff;opacity:.9;}</style><linearGradient id="b" x1="6.5" y1="13" x2="6.5" y2="0" gradientUnits="userSpaceOnUse"><stop offset="0" stop-color="#cf5063"/><stop offset="1" stop-color="#d4b1ff"/></linearGradient></defs><path class="e" d="M11,1c.55,0,1,.45,1,1v9c0,.55-.45,1-1,1H2c-.55,0-1-.45-1-1V2c0-.55.45-1,1-1h9"/><path class="c" d="M10.83,0H2.17C.97,0,0,.97,0,2.17v8.67c0,1.2.97,2.17,2.17,2.17h8.67c1.2,0,2.17-.97,2.17-2.17V2.17c0-1.2-.97-2.17-2.17-2.17ZM6.5,11.92l-5.42-1.83V2.9s5.42-1.82,5.42-1.82l5.42,1.83v7.18s-5.41,1.82-5.41,1.82h0Z"/><path class="d" d="M4.36,9.36c-.29,0-.55-.04-.77-.12-.23-.08-.42-.19-.57-.33s-.27-.31-.35-.5c-.08-.19-.12-.41-.12-.64,0-.36.09-.65.27-.87s.42-.38.72-.47v-.06c-.25-.1-.45-.25-.6-.46s-.23-.48-.23-.8c0-.21.04-.4.11-.57s.18-.32.32-.45.32-.22.52-.3.44-.11.71-.11.5.04.71.11c.21.07.38.17.52.3s.25.28.32.45.11.36.11.57c0,.32-.08.59-.23.8s-.35.37-.6.46v.06c.3.09.54.25.72.47.18.22.27.51.27.87,0,.23-.04.44-.12.64-.08.19-.2.36-.35.5s-.34.25-.57.33c-.23.08-.48.12-.77.12ZM4.36,8.55c.27,0,.48-.07.62-.2.15-.14.22-.33.22-.58v-.17c0-.25-.07-.44-.22-.57-.14-.14-.35-.21-.62-.21s-.48.07-.62.21c-.15.14-.22.33-.22.57v.17c0,.25.07.44.22.58.14.14.35.2.62.2ZM4.36,6.05c.25,0,.44-.06.58-.19.13-.13.2-.3.2-.54v-.13c0-.23-.07-.4-.2-.53-.13-.13-.33-.19-.58-.19s-.44.06-.58.19c-.13.13-.2.3-.2.53v.13c0,.23.07.41.2.54.13.13.33.19.58.19Z"/><path class="d" d="M8.66,9.36c-.28,0-.54-.05-.76-.15-.22-.1-.41-.25-.57-.43s-.28-.41-.36-.68c-.08-.26-.12-.56-.12-.89,0-.39.05-.76.16-1.11.11-.35.25-.67.42-.96.17-.29.36-.55.57-.78.21-.23.42-.42.63-.58h1.27c-.29.23-.56.46-.79.67s-.43.43-.61.66c-.17.22-.32.45-.43.69s-.2.5-.25.78l.06.02c.05-.11.1-.21.17-.31.06-.1.14-.19.23-.26.09-.08.19-.14.31-.18.12-.05.26-.07.41-.07.2,0,.4.04.57.12s.33.19.46.34c.13.15.23.33.31.54.07.21.11.44.11.7,0,.28-.04.53-.13.76-.09.23-.21.43-.36.6-.16.17-.35.3-.57.39-.22.09-.47.14-.74.14ZM8.66,8.55c.26,0,.47-.08.62-.24.15-.16.22-.39.22-.69v-.12c0-.3-.07-.53-.22-.69-.15-.16-.36-.24-.62-.24s-.47.08-.62.24c-.15.16-.22.39-.22.69v.12c0,.3.07.53.22.69.15.16.35.24.62.24Z"/></svg>