<svg xmlns="http://www.w3.org/2000/svg" width="13" height="13" viewBox="0 0 13 13" overflow="hidden" preserveAspectRatio="xMidYMid meet" id="eaf-125cf-0"><defs><clipPath id="eaf-125cf-1"><rect x="0" y="0" width="13" height="13"></rect></clipPath><linearGradient gradientUnits="userSpaceOnUse" x1="6.5" y1="13" x2="6.5" y2="0" id="eaf-125cf-2"><stop stop-color="#3061e6" offset="0" style="animation-name: eaf-125cf-3;"></stop><stop stop-color="#faef73" offset="0.96" style="animation-name: eaf-125cf-4;"></stop></linearGradient><style>#eaf-125cf-0 * {animation: 3000ms linear infinite normal both running;offset-rotate:0deg}@keyframes eaf-125cf-3{0%{stop-color:#3061e6}50%{stop-color:#faef73}100%{stop-color:#3061e6}}@keyframes eaf-125cf-4{0%{stop-color:#faef73}50%{stop-color:#3061e6}100%{stop-color:#faef73}}</style></defs><g clip-path="url('#eaf-125cf-1')" style="isolation: isolate;"><g><path fill="#fff" d="m11 1c0.55 0 1 0.45 1 1l0 9c0 0.55 -0.45 1 -1 1l-9 0c-0.55 0 -1 -0.45 -1 -1l0 -9c0 -0.55 0.45 -1 1 -1l9 0" opacity="0.9"></path><path fill="url('#eaf-125cf-2')" d="m10.83 0l-8.66 0c-1.2 0 -2.17 0.97 -2.17 2.17l0 8.67c0 1.2 0.97 2.17 2.17 2.17l8.67 0c1.2 0 2.17 -0.97 2.17 -2.17l0 -8.67c0 -1.2 -0.97 -2.17 -2.17 -2.17l-0.01 0zm-4.33 11.92l-5.42 -1.83l0 -7.19c0 0 5.42 -1.82 5.42 -1.82l5.42 1.83l0 7.18c0 0 -5.41 1.82 -5.41 1.82l0 0l-0.01 0.01z"></path><path d="M4.13269 3.72974Q4.13269 4.29187 3.96423 4.79175Q3.79578 5.28979 3.52478 5.70728Q3.25562 6.12292 2.92053 6.44885Q2.58728 6.77478 2.25769 7L0.922852 7Q1.38062 6.67041 1.74683 6.36279Q2.11487 6.05518 2.3877 5.74023Q2.66235 5.42529 2.83813 5.08472Q3.01575 4.74231 3.10547 4.34497L3.04504 4.33032Q2.96997 4.48047 2.86743 4.62329Q2.76672 4.76428 2.6239 4.87048Q2.48291 4.97485 2.29431 5.03894Q2.10754 5.10303 1.86035 5.10303Q1.53076 5.10303 1.25244 4.99133Q0.974121 4.87781 0.767212 4.66357Q0.562134 4.44934 0.444946 4.15454Q0.32959 3.85791 0.32959 3.48254Q0.32959 3.08521 0.465088 2.75562Q0.600586 2.42419 0.847778 2.18433Q1.09497 1.94446 1.44287 1.81079Q1.7926 1.67529 2.22839 1.67529Q2.677 1.67529 3.02856 1.82178Q3.38196 1.96826 3.62915 2.23376Q3.87817 2.49927 4.00452 2.8783Q4.13269 3.25732 4.13269 3.72974ZM2.22839 4.33765Q2.64771 4.33765 2.88025 4.10876Q3.11279 3.87988 3.11279 3.45325L3.11279 3.33972Q3.11279 2.91309 2.88025 2.6842Q2.64771 2.45532 2.22839 2.45532Q1.81458 2.45532 1.57837 2.6842Q1.34216 2.91309 1.34216 3.33972L1.34216 3.45325Q1.34216 3.87988 1.57837 4.10876Q1.81458 4.33765 2.22839 4.33765ZM8.36165 2.62012L6.00691 2.62012L5.88789 4.37427L5.93916 4.37427Q6.02156 4.20947 6.11861 4.06848Q6.21748 3.92566 6.34383 3.82861Q6.472 3.72974 6.64046 3.6748Q6.81075 3.61804 7.05061 3.61804Q7.38753 3.61804 7.67867 3.73157Q7.97163 3.84326 8.18587 4.0575Q8.4001 4.2699 8.52278 4.57751Q8.64729 4.88513 8.64729 5.27515Q8.64729 5.67249 8.51912 6.00208Q8.39278 6.33167 8.14375 6.57703Q7.89656 6.82056 7.53584 6.95605Q7.17696 7.08972 6.71187 7.08972Q6.35298 7.08972 6.06734 7.01099Q5.78169 6.93225 5.5638 6.79858Q5.34773 6.66309 5.19026 6.4873Q5.03279 6.30969 4.91194 6.1156L5.63155 5.56079Q5.7231 5.70911 5.82014 5.84094Q5.91719 5.97278 6.04903 6.06982Q6.18086 6.16687 6.342 6.22363Q6.50313 6.2804 6.71919 6.2804Q7.16231 6.2804 7.39119 6.0332Q7.62007 5.78418 7.62007 5.35754L7.62007 5.29712Q7.62007 4.89246 7.38753 4.65991Q7.15498 4.42737 6.743 4.42737Q6.42073 4.42737 6.21748 4.55188Q6.01424 4.67456 5.89522 4.81738L5.08406 4.70569L5.27998 1.76501L8.36165 1.76501L8.36165 2.62012Z" fill="#334155" transform="translate(2 2.17)"></path></g></g></svg>