<svg xmlns="http://www.w3.org/2000/svg" width="13" height="13" viewBox="0 0 13 13" overflow="hidden" preserveAspectRatio="xMidYMid meet" id="eaf-f76e-0"><defs><clipPath id="eaf-f76e-1"><rect x="0" y="0" width="13" height="13"></rect></clipPath><linearGradient gradientUnits="userSpaceOnUse" x1="6.5" y1="13" x2="6.5" y2="0" id="eaf-f76e-2"><stop stop-color="#3061e6" offset="0" style="animation-name: eaf-f76e-3;"></stop><stop stop-color="#faef73" offset="0.96" style="animation-name: eaf-f76e-4;"></stop></linearGradient><style>#eaf-f76e-0 * {animation: 3000ms linear infinite normal both running;offset-rotate:0deg}@keyframes eaf-f76e-3{0%{stop-color:#3061e6}50%{stop-color:#faef73}100%{stop-color:#3061e6}}@keyframes eaf-f76e-4{0%{stop-color:#faef73}50%{stop-color:#3061e6}100%{stop-color:#faef73}}</style></defs><g clip-path="url('#eaf-f76e-1')" style="isolation: isolate;"><g><path fill="#fff" d="m11 1c0.55 0 1 0.45 1 1l0 9c0 0.55 -0.45 1 -1 1l-9 0c-0.55 0 -1 -0.45 -1 -1l0 -9c0 -0.55 0.45 -1 1 -1l9 0" opacity="0.9"></path><path fill="url('#eaf-f76e-2')" d="m10.83 0l-8.66 0c-1.2 0 -2.17 0.97 -2.17 2.17l0 8.67c0 1.2 0.97 2.17 2.17 2.17l8.67 0c1.2 0 2.17 -0.97 2.17 -2.17l0 -8.67c0 -1.2 -0.97 -2.17 -2.17 -2.17l-0.01 0zm-4.33 11.92l-5.42 -1.83l0 -7.19c0 0 5.42 -1.82 5.42 -1.82l5.42 1.83l0 7.18c0 0 -5.41 1.82 -5.41 1.82l0 0l-0.01 0.01z"></path><path fill="#334155" d="m4.1327 3.7297q0 0.5621 -0.1685 1.062q-0.1685 0.498 -0.4395 0.9155q-0.2692 0.4156 -0.6042 0.7416q-0.3333 0.3259 -0.6628 0.5511l-1.3348 0q0.4578 -0.3296 0.824 -0.6372q0.368 -0.3076 0.6409 -0.6226q0.2747 -0.3149 0.4504 -0.6555q0.1776 -0.3424 0.2673 -0.7397l-0.0604 -0.0146q-0.0751 0.1501 -0.1776 0.293q-0.1007 0.141 -0.2435 0.2472q-0.141 0.1044 -0.3296 0.1685q-0.1868 0.0641 -0.434 0.0641q-0.3296 0 -0.6079 -0.1117q-0.2783 -0.1135 -0.4852 -0.3278q-0.2051 -0.2142 -0.3223 -0.509q-0.1154 -0.2966 -0.1154 -0.672q0 -0.3973 0.1355 -0.7269q0.1355 -0.3314 0.3827 -0.5713q0.2472 -0.2399 0.5951 -0.3735q0.3497 -0.1355 0.7855 -0.1355q0.4486 0 0.8002 0.1465q0.3534 0.1465 0.6006 0.412q0.249 0.2655 0.3754 0.6445q0.1282 0.379 0.1282 0.8514zm-1.9043 0.6079q0.4193 0 0.6519 -0.2289q0.2325 -0.2289 0.2325 -0.6555l0 -0.1135q0 -0.4266 -0.2325 -0.6555q-0.2325 -0.2289 -0.6519 -0.2289q-0.4138 0 -0.65 0.2289q-0.2362 0.2289 -0.2362 0.6555l0 0.1135q0 0.4266 0.2362 0.6555q0.2362 0.2289 0.65 0.2289zm4.5439 2.7521q-0.4504 0 -0.8038 -0.1465q-0.3516 -0.1465 -0.5988 -0.412q-0.2472 -0.2655 -0.3754 -0.6445q-0.1263 -0.379 -0.1263 -0.8514q0 -0.5621 0.1685 -1.0602q0.1685 -0.4999 0.4376 -0.9155q0.271 -0.4175 0.6042 -0.7434q0.3333 -0.3259 0.6647 -0.5511l1.3348 0q-0.4651 0.3296 -0.8295 0.6372q-0.3625 0.3076 -0.6372 0.6226q-0.2728 0.3149 -0.4504 0.6573q-0.1758 0.3406 -0.2655 0.7379l0.0604 0.0146q0.0751 -0.1501 0.1758 -0.2875q0.1007 -0.1392 0.2435 -0.2472q0.1428 -0.1099 0.3296 -0.174q0.1886 -0.0641 0.4358 -0.0641q0.3223 0 0.6024 0.1135q0.282 0.1117 0.4871 0.3259q0.2069 0.2142 0.3223 0.5145q0.1172 0.2985 0.1172 0.6665q0 0.3973 -0.1355 0.7288q-0.1337 0.3296 -0.3809 0.5695q-0.2472 0.2399 -0.5969 0.3754q-0.3479 0.1337 -0.7837 0.1337zm0 -0.78q0.412 0 0.6482 -0.2289q0.2362 -0.2289 0.2362 -0.6555l0 -0.1135q0 -0.4266 -0.2362 -0.6555q-0.2362 -0.2289 -0.6482 -0.2289q-0.4193 0 -0.6519 0.2289q-0.2325 0.2289 -0.2325 0.6555l0 0.1135q0 0.4266 0.2325 0.6555q0.2325 0.2289 0.6519 0.2289z" transform="translate(2 2.17)"></path></g></g></svg>