<svg xmlns="http://www.w3.org/2000/svg" width="13" height="13" viewBox="0 0 13 13" overflow="hidden" preserveAspectRatio="xMidYMid meet" id="eaf-129f2-0"><defs><clipPath id="eaf-129f2-1"><rect x="0" y="0" width="13" height="13"></rect></clipPath><linearGradient gradientUnits="userSpaceOnUse" x1="6.5" y1="13" x2="6.5" y2="0" id="eaf-129f2-2"><stop stop-color="#3061e6" offset="0" style="animation-name: eaf-129f2-3;"></stop><stop stop-color="#faef73" offset="0.96" style="animation-name: eaf-129f2-4;"></stop></linearGradient><style>#eaf-129f2-0 * {animation: 3000ms linear infinite normal both running;offset-rotate:0deg}@keyframes eaf-129f2-3{0%{stop-color:#3061e6}50%{stop-color:#faef73}100%{stop-color:#3061e6}}@keyframes eaf-129f2-4{0%{stop-color:#faef73}50%{stop-color:#3061e6}100%{stop-color:#faef73}}</style></defs><g clip-path="url('#eaf-129f2-1')" style="isolation: isolate;"><g><path fill="#fff" d="m11 1c0.55 0 1 0.45 1 1l0 9c0 0.55 -0.45 1 -1 1l-9 0c-0.55 0 -1 -0.45 -1 -1l0 -9c0 -0.55 0.45 -1 1 -1l9 0" opacity="0.9"></path><path fill="url('#eaf-129f2-2')" d="m10.83 0l-8.66 0c-1.2 0 -2.17 0.97 -2.17 2.17l0 8.67c0 1.2 0.97 2.17 2.17 2.17l8.67 0c1.2 0 2.17 -0.97 2.17 -2.17l0 -8.67c0 -1.2 -0.97 -2.17 -2.17 -2.17l-0.01 0zm-4.33 11.92l-5.42 -1.83l0 -7.19c0 0 5.42 -1.82 5.42 -1.82l5.42 1.83l0 7.18c0 0 -5.41 1.82 -5.41 1.82l0 0l-0.01 0.01z"></path><path fill="#334155" d="m4.1327 3.7297q0 0.5621 -0.1685 1.062q-0.1685 0.498 -0.4395 0.9155q-0.2692 0.4156 -0.6042 0.7416q-0.3333 0.3259 -0.6628 0.5511l-1.3348 0q0.4578 -0.3296 0.824 -0.6372q0.368 -0.3076 0.6409 -0.6226q0.2747 -0.3149 0.4504 -0.6555q0.1776 -0.3424 0.2673 -0.7397l-0.0604 -0.0146q-0.0751 0.1501 -0.1776 0.293q-0.1007 0.141 -0.2435 0.2472q-0.141 0.1044 -0.3296 0.1685q-0.1868 0.0641 -0.434 0.0641q-0.3296 0 -0.6079 -0.1117q-0.2783 -0.1135 -0.4852 -0.3278q-0.2051 -0.2142 -0.3223 -0.509q-0.1154 -0.2966 -0.1154 -0.672q0 -0.3973 0.1355 -0.7269q0.1355 -0.3314 0.3827 -0.5713q0.2472 -0.2399 0.5951 -0.3735q0.3497 -0.1355 0.7855 -0.1355q0.4486 0 0.8002 0.1465q0.3534 0.1465 0.6006 0.412q0.249 0.2655 0.3754 0.6445q0.1282 0.379 0.1282 0.8514zm-1.9043 0.6079q0.4193 0 0.6519 -0.2289q0.2325 -0.2289 0.2325 -0.6555l0 -0.1135q0 -0.4266 -0.2325 -0.6555q-0.2325 -0.2289 -0.6519 -0.2289q-0.4138 0 -0.65 0.2289q-0.2362 0.2289 -0.2362 0.6555l0 0.1135q0 0.4266 0.2362 0.6555q0.2362 0.2289 0.65 0.2289zm4.5219 2.7521q-0.4578 0 -0.8148 -0.1154q-0.3552 -0.1172 -0.5988 -0.3186q-0.2435 -0.2032 -0.3717 -0.4797q-0.1282 -0.2783 -0.1282 -0.6079q0 -0.5109 0.282 -0.8295q0.282 -0.3186 0.7544 -0.4468l0 -0.0586q-0.39 -0.1428 -0.6354 -0.4431q-0.2435 -0.3003 -0.2435 -0.7581q0 -0.3003 0.1154 -0.5475q0.1172 -0.2472 0.3424 -0.4266q0.2252 -0.1813 0.5511 -0.282q0.3259 -0.1007 0.7471 -0.1007q0.4193 0 0.7452 0.1007q0.3278 0.1007 0.5511 0.282q0.2252 0.1794 0.3406 0.4266q0.1172 0.2472 0.1172 0.5475q0 0.4578 -0.2435 0.7581q-0.2435 0.3003 -0.6335 0.4431l0 0.0586q0.4724 0.1282 0.7526 0.4468q0.282 0.3186 0.282 0.8295q0 0.3296 -0.1282 0.6079q-0.1263 0.2765 -0.3699 0.4797q-0.2435 0.2014 -0.6006 0.3186q-0.3552 0.1154 -0.813 0.1154zm0 -0.7727q0.4266 0 0.6555 -0.1941q0.2289 -0.1959 0.2289 -0.5475l0 -0.1575q0 -0.3534 -0.2289 -0.5475q-0.2289 -0.1959 -0.6555 -0.1959q-0.4285 0 -0.6573 0.1959q-0.2289 0.1941 -0.2289 0.5475l0 0.1575q0 0.3516 0.2289 0.5475q0.2289 0.1941 0.6573 0.1941zm0 -2.3767q0.3973 0 0.6061 -0.1794q0.2106 -0.1813 0.2106 -0.5109l0 -0.1208q0 -0.3223 -0.2106 -0.5017q-0.2087 -0.1794 -0.6061 -0.1794q-0.3973 0 -0.6079 0.1794q-0.2106 0.1794 -0.2106 0.5017l0 0.1208q0 0.3296 0.2106 0.5109q0.2106 0.1794 0.6079 0.1794z" transform="translate(2 2.17)"></path></g></g></svg>