<svg xmlns="http://www.w3.org/2000/svg" width="13" height="13" viewBox="0 0 13 13" overflow="hidden" preserveAspectRatio="xMidYMid meet" id="eaf-3ff4-0"><defs><clipPath id="eaf-3ff4-1"><rect x="0" y="0" width="13" height="13"></rect></clipPath><linearGradient gradientUnits="userSpaceOnUse" x1="6.5" y1="13" x2="6.5" y2="0" id="eaf-3ff4-2"><stop stop-color="#3061e6" offset="0" style="animation-name: eaf-3ff4-3;"></stop><stop stop-color="#73e8fa" offset="0.96" style="animation-name: eaf-3ff4-4;"></stop></linearGradient><style>#eaf-3ff4-0 * {animation: 3000ms linear infinite normal both running;offset-rotate:0deg}@keyframes eaf-3ff4-3{0%{stop-color:#3061e6}33.33%{stop-color:#30e633}66.67%{stop-color:#e63061}100%{stop-color:#3061e6}}@keyframes eaf-3ff4-4{0%{stop-color:#73e8fa}33.33%{stop-color:#f8fa73}66.67%{stop-color:#fa73e3}100%{stop-color:#72e7f9}}</style></defs><g clip-path="url('#eaf-3ff4-1')" style="isolation: isolate;"><g><path fill="#fff" d="m11 1c0.55 0 1 0.45 1 1l0 9c0 0.55 -0.45 1 -1 1l-9 0c-0.55 0 -1 -0.45 -1 -1l0 -9c0 -0.55 0.45 -1 1 -1l9 0" opacity="0.9"></path><path fill="url('#eaf-3ff4-2')" d="m10.83 0l-8.66 0c-1.2 0 -2.17 0.97 -2.17 2.17l0 8.67c0 1.2 0.97 2.17 2.17 2.17l8.67 0c1.2 0 2.17 -0.97 2.17 -2.17l0 -8.67c0 -1.2 -0.97 -2.17 -2.17 -2.17l-0.01 0zm-4.33 11.92l-5.42 -1.83l0 -7.19c0 0 5.42 -1.82 5.42 -1.82l5.42 1.83l0 7.18c0 0 -5.41 1.82 -5.41 1.82l0 0l-0.01 0.01z"></path><path d="M4.13269 3.72974Q4.13269 4.29187 3.96423 4.79175Q3.79578 5.28979 3.52478 5.70728Q3.25562 6.12292 2.92053 6.44885Q2.58728 6.77478 2.25769 7L0.922852 7Q1.38062 6.67041 1.74683 6.36279Q2.11487 6.05518 2.3877 5.74023Q2.66235 5.42529 2.83813 5.08472Q3.01575 4.74231 3.10547 4.34497L3.04504 4.33032Q2.96997 4.48047 2.86743 4.62329Q2.76672 4.76428 2.6239 4.87048Q2.48291 4.97485 2.29431 5.03894Q2.10754 5.10303 1.86035 5.10303Q1.53076 5.10303 1.25244 4.99133Q0.974121 4.87781 0.767212 4.66357Q0.562134 4.44934 0.444946 4.15454Q0.32959 3.85791 0.32959 3.48254Q0.32959 3.08521 0.465088 2.75562Q0.600586 2.42419 0.847778 2.18433Q1.09497 1.94446 1.44287 1.81079Q1.7926 1.67529 2.22839 1.67529Q2.677 1.67529 3.02856 1.82178Q3.38196 1.96826 3.62915 2.23376Q3.87817 2.49927 4.00452 2.8783Q4.13269 3.25732 4.13269 3.72974ZM2.22839 4.33765Q2.64771 4.33765 2.88025 4.10876Q3.11279 3.87988 3.11279 3.45325L3.11279 3.33972Q3.11279 2.91309 2.88025 2.6842Q2.64771 2.45532 2.22839 2.45532Q1.81458 2.45532 1.57837 2.6842Q1.34216 2.91309 1.34216 3.33972L1.34216 3.45325Q1.34216 3.87988 1.57837 4.10876Q1.81458 4.33765 2.22839 4.33765ZM8.63264 3.72974Q8.63264 4.29187 8.46419 4.79175Q8.29573 5.28979 8.02473 5.70728Q7.75557 6.12292 7.42049 6.44885Q7.08723 6.77478 6.75764 7L5.42281 7Q5.88057 6.67041 6.24678 6.36279Q6.61482 6.05518 6.88765 5.74023Q7.16231 5.42529 7.33809 5.08472Q7.5157 4.74231 7.60542 4.34497L7.545 4.33032Q7.46992 4.48047 7.36739 4.62329Q7.26668 4.76428 7.12386 4.87048Q6.98286 4.97485 6.79427 5.03894Q6.6075 5.10303 6.36031 5.10303Q6.03072 5.10303 5.7524 4.99133Q5.47408 4.87781 5.26717 4.66357Q5.06209 4.44934 4.9449 4.15454Q4.82954 3.85791 4.82954 3.48254Q4.82954 3.08521 4.96504 2.75562Q5.10054 2.42419 5.34773 2.18433Q5.59492 1.94446 5.94283 1.81079Q6.29256 1.67529 6.72835 1.67529Q7.17696 1.67529 7.52852 1.82178Q7.88191 1.96826 8.1291 2.23376Q8.37813 2.49927 8.50447 2.8783Q8.63264 3.25732 8.63264 3.72974ZM6.72835 4.33765Q7.14766 4.33765 7.3802 4.10876Q7.61275 3.87988 7.61275 3.45325L7.61275 3.33972Q7.61275 2.91309 7.3802 2.6842Q7.14766 2.45532 6.72835 2.45532Q6.31453 2.45532 6.07832 2.6842Q5.84212 2.91309 5.84212 3.33972L5.84212 3.45325Q5.84212 3.87988 6.07832 4.10876Q6.31453 4.33765 6.72835 4.33765Z" fill="#334155" transform="translate(2 2.17)"></path></g></g></svg>