<svg xmlns="http://www.w3.org/2000/svg" id="eaf-10a55-0" overflow="hidden" preserveAspectRatio="xMidYMid meet" viewBox="0 0 88 47"><defs><clipPath id="eaf-10a55-1"><path d="M0 0h88v47H0z"/></clipPath><style>@keyframes eaf-10a55-2{0%,to{transform:none;offset-path:path(&quot;m75.4688 22.0257l-24 0l24 0l0 0.019l0 -0.019l-24 0&quot;)}}@keyframes eaf-10a55-3{0%,1.67%{offset-distance:0}30%{offset-distance:33.3158%;animation-timing-function:cubic-bezier(.75,0,.75,.9)}34.17%{offset-distance:66.6316%}52.08%{offset-distance:66.6579%}89.17%{offset-distance:66.6842%;animation-timing-function:cubic-bezier(.75,0,.75,.9)}93.33%,to{offset-distance:100%}}@keyframes eaf-10a55-4{0%,to{transform:matrix(.1,0,0,.1,-76.1182,-19.224)}}@keyframes eaf-10a55-5{0%,30%,91.25%,to{opacity:0}34.17%,89.17%{opacity:1}}@keyframes eaf-10a55-6{0%,to{transform:translate(.3996px,23.597px)}}@keyframes eaf-10a55-7{0%,38.33%,to{transform:scale(.1,.1)}30%{transform:scale(.1,.1);animation-timing-function:cubic-bezier(.75,0,.75,.9)}34.17%{transform:scale(.12,.1);animation-timing-function:cubic-bezier(.75,0,.75,.9)}}@keyframes eaf-10a55-8{0%,to{transform:translate(-8.1265px,-235.9549px)}}@keyframes eaf-10a55-9{0%,38.33%,85%,to{opacity:0}40.42%,82.92%{opacity:1}}#eaf-10a55-0 *{animation:10000ms linear infinite normal both running;offset-rotate:0deg}</style></defs><g clip-path="url('#eaf-10a55-1')" style="isolation:isolate"><g><g opacity="0" style="animation-name:eaf-10a55-2,eaf-10a55-3,eaf-10a55-4,eaf-10a55-5;animation-composition:replace,add,add,replace" transform="matrix(.1 0 0 .1 -.65 2.802)"><path fill="#383838" d="M668.996 342.445c-29.15-3.63-19.42-39.89-21.37-60.42-.91-25-4.49-60.01 8.66-81.98 4.74-7.57 12.47-12.12 18.95-17.41 2.78-2.31 4.74-4.52 5.48-7.02.95-3.01.05-6.59-1.5-10.83-1.73-4.67-3.7-9.49-4.93-14.37-1.87-7.08-1.95-15.2-1.85-23.19.16-7.15.5-14.45 2.58-21.31 4.3-16.23 20.62-23.79 32.07-34.41 12.18-10.78 19.05-24.77 36.25-28.4 16.77-4.17 32.76 4.14 47.58 10.96 10.9 4.66 22.89 6.79 32.73 13.73 18.73 13 26.98 35.51 36.23 55.38 3.98 8.01 7.19 16.37 10.25 24.76 12.47 28.73 3.33 58.37-14.89 82.18-7.29 9.66-15.35 19.2-25.69 25.63-5.53 3.15-11.92 4.94-18.24 6.42-6.44 1.51-12.09 2.86-14.29 4.22-3.3 1.69 1.31 4.04 4.6 5.33 5.57 2.29 14.03 5.33 18.55 10.7 10.51 11.85.87 28.01-11.5 34.23-14.63 7.89-31.34 7.54-47.98 5.53-10.31-1.22-20.65-3.67-30.43-2.91-5.83.4-11.51 1.91-16.86 4.28-14.33 6.26-27.87 19.99-44.24 18.89h-.18l.02.01zm38.67-117.86c-5.36 3.21-4.86 33.8 3.27 33.55 2.47-.27 5.17-4.43 6.36-10.69 1.07-5.56.67-11.83-1.5-17.03-1.36-3.19-4.36-7.99-8.03-5.9l-.1.07z"/><g transform="translate(4.127 -.005)"><path fill="#278064" d="M761.79 225.92c-5.11 9.04-11.03 18.78-20.15 21.52-.68.2-1.42.36-2.08.08-.85-.37-1.33-1.37-1.74-2.3-4.54-10.44-7.91-21.54-10.01-32.95-.4-2.19-.72-4.61.29-6.53 1.06-2.01 3.36-2.82 5.41-2.55 2.05.27 3.92 1.4 5.74 2.52 6.4 3.94 12.8 7.87 19.2 11.81"/><path fill="none" stroke="#278064" stroke-linejoin="round" stroke-width="5" d="M761.26 180.06c-8.33 61.26-45.89 116.3-95.93 140.59"/><path fill="#278064" d="M786.34 300.46c-3.7.77-7.48 1.1-11.23 1.08-10.75-.03-21.33-2.68-31.89-4.69-10.64-2.03-21.51-3.59-32.28-1.96-2.86.43-6.27.87-8.17-1.61 3.64-5.5 9.83-7.87 15.73-9.37 11.66-2.97 23.38-3.33 35.25-2.18 10.79 1.05 20.35 5.5 30.68 8.77 2.99.95 6.05 1.39 9.14 1.59 2.68.17 6.64-.66 8.96.55-3.51 4.19-11.24 6.79-16.19 7.82zM667.06 221.18c-2.45 15.61-1.97 30.96-1.28 46.74.69 15.76 2.11 31.47 4.25 47.06.1.72.31 1.58.92 1.77.52.16 1.02-.27 1.41-.69 6.05-6.42 7.78-16.45 8.66-25.81 2.02-21.38 2.96-44.01-1.41-65.09-.39-1.87-6.26-20.38-6.29-20.35-4.01 4-5.33 10.39-6.27 16.37h.01z"/><g><path fill="#e0414e" d="M778.65 77.27c-.17.48 2.98 5.89 3.32 6.81.83 2.29 1.51 4.75 2.09 7.13 1.18 4.82.1 9.53-.45 14.43a273.48 273.48 0 0 0 20.7-23.59c2.6 6.09.98 13.21-.68 19.6 3.92-1.7 7.45-4.5 10.2-8.08 1.32 5.44.54 11.43-2.09 16.09 4.19-.9 8.18-2.86 11.6-5.7.48 7.57-2.28 13.3-3.56 20.33 2.33.57 4.16 1.56 6.39 2.41 1.45.55 2.97.88 4.43 1.39.8.28 3.3 1.8 4.02 1.56-6 1.97-11.42 5.49-16.77 8.99-1.25.81-2.5 1.63-3.65 2.59 5.89.8 11.87 1.61 17.56 3.98 1.35.56 11.64 6.85 12.38 5.84-2.21 3.02-8.46 6.96-11.66 8.59 8.16 4.22 13.42 7.93 19.35 15.76-6.31 2.99-12.9 5.33-19.7 6.98 4.8 4.16 9.27 8.86 13.3 13.98-3.93-1.01-7.95-1.02-11.69-.04 3.3 4.14 5.46 9.39 6.04 14.68-10.9-.95-21.7-18.6-32.52-21.59 9.21 12.14 17.03 31.14 13.61 45.27-4.04-3.47-8.03-15.75-12.68-17.71 1.59 8.46 1.21 17.14-1.09 24.88-4.66-5.51-9.79-10.54-15.25-14.95-1.54 5.35-3.07 10.7-4.61 16.05-4.15-4.96-7.7-10.57-10.48-16.56-2.25 4.6.51 16.44-2.52 20.37-.89 1.16-17.25-31.23-20.14-37.42-3.14 5.21-9.69 14.5-14.22 20.68-.78-5.12-1.55-10.25-2.33-15.37-4.24.33-8.49.67-12.73 1 .68-4.68 1.37-9.37 2.05-14.05-6.29 3.85-14.08 4.88-21.56 2.84.43-6.8 3.32-13.05 7.88-17.03-3.58-2.49-7.66-3.91-11.65-4.05 3.22-7.15 9.68-14.7 15.66-18.93-7.65-8.25-18.64-12.84-28.49-15.99 2.57-5.66 7.49-9.67 13.18-10.73-2.75-3.4-6.05-6.25-9.64-8.3 3.68.17 7.37.34 11.05.52-3.14-7.32-8.15-13.78-14.18-18.32 8.36-2.08 19.31-1.74 26.8 4.49-1.05-4.98-9.13-13.81-12.3-17.7 9.16-.68 25.29 7.62 33.39 13.84-6.31-15.12-2.44-23.08-9.69-32.39 4.16.84 8.25 2.81 11.83 5.69.48-7 .14-14.17-.98-21.29 4.88 5.16 9.77 10.32 14.65 15.48 2.19-5.15 4.39-10.31 6.58-15.46 5.9 7.86 11.14 16.32 15.61 25.21 1.21-4.07 2.42-8.14 3.63-12.22l.01.01z"/><path fill="none" stroke="#bd393f" stroke-linejoin="round" stroke-width="2" d="M792.84 160.21c8.78-1.04 17.75-.78 26.63.77-2.07-3.11-4.83-5.63-7.93-7.23 2.38-1.73 4.94-3.16 7.63-4.27-3.59-2.22-7.41-3.92-11.32-5.02 2.28-3.56 3.44-8.07 3.25-12.62a34.413 34.413 0 0 1-9.38 4.23c1.92-4.18 2.55-9.19 1.78-14.02-2.87 4.09-7.73 5.51-11.99 7.61-5.12 2.52-9.7 6.31-13.35 11.04M771.38 179.88c2.54 1.57 3.26 5.28 3.58 8.47.8 8.1.95 16.23.44 24.25-2.31-3.25-4.61-6.5-6.92-9.74-3.6 4.79-9.02 7.72-14.74 7.95 2.35-5.09 3.47-10.98 3.21-16.92-3.07 2.41-6.4 4.4-9.92 5.91 1.33-4.17 2.46-8.43 3.37-12.77a66.07 66.07 0 0 1-12.09 2.34c3.59-10.11 10.25-18.57 18.66-23.72M783.15 133.98c3.27-10.23 1.21-22.04-5.11-29.33-.53 2.57-1.2 5.12-1.99 7.62-1.86-5.79-5.32-10.77-9.8-14.1a67.759 67.759 0 0 1-5.04 15.38c-.34-3.23-1.63-6.24-3.6-8.46-.32 2.83-.63 5.66-.95 8.49-1.43-3.78-3.49-7.2-6.04-10.05-1.9 13.36.84 27.12 7.48 37.59"/><path fill="none" stroke="#bd393f" stroke-linejoin="round" stroke-width="2" d="M800.25 160.72c7.41 6.18 15.18 12.86 18.87 22.33-.36-.92-5.08-2.41-6.01-2.85-2.02-.95-4.3-1.17-6.43-1.16 2.08 3.57 4.4 6.97 6.95 10.15-4.18-1.93-8.65-2.91-13.05-2.87a74.86 74.86 0 0 1 5.13 17.36c.24 1.43.43 2.94-.04 4.23-3.47-4.54-6.78-7.83-11.27-10.92.11 4.59-.05 9.17-.47 13.69-.08.87-.24 1.86-.91 2.26-2.64-4.56-5.7-8.83-9.11-12.71.42 2.94 0 5.97-1.19 8.5a91.588 91.588 0 0 0-7.9-12.29M749.77 171.28c-6.18 0-13.65-.06-19.84.08 1.99-2.47 3.98-4.95 5.97-7.42-4.23-1.64-8.47-3.27-12.7-4.91 3.66-1.91 7.32-3.77 11.01-5.58-2.96-.97-5.91-1.94-8.87-2.91 2.04-1.74 4.56-2.67 6.95-2.57a54.837 54.837 0 0 0-9.08-6.03c1.99-3.54 6.25-3.93 9.69-3.61 7.11.66 14.03 2.43 20.52 5.24"/><path fill="none" stroke="#bd393f" stroke-linejoin="round" stroke-width="2" d="M750.1 118.87c-5.05-4.91-11.51-7.85-17.93-8.16 2.85 4.53 5.71 9.08 7.9 14.04-3.09-2.37-6.53-4.13-10.08-5.15 2.56 2.73 4.84 5.8 6.77 9.12-3.63-2.57-7.35-4.96-11.16-7.16 1.58 2.55 7.75 14.43 9.34 16.98M782.84 157.17c8.35 1.03 16.47 6.47 21.52 14.42l-6.86-1.57c1.14 3.54 1.64 7.29 1.47 10.95-.02.35-.09.76-.38.84-.17.05-.36-.05-.52-.14-2.65-1.49-5.3-2.99-7.95-4.48 1.18 2.79 1.49 5.98.88 8.85-2.12-2.42-4.23-4.85-6.35-7.27 1 2.59 1.5 5.4 1.46 8.15-3.3-3.25-6.59-6.51-9.89-9.76-3.28-3.24-6.66-6.61-8.58-11"/><path fill="none" stroke="#bd393f" stroke-linejoin="round" stroke-width="2" d="M757.68 163.87c-4.19 4.67-6.23 11.73-5.39 18.64 1.09-.89 2.29-1.6 3.57-2.1.41 3.35 1.43 6.66 2.97 9.65 1.11-1.92 2.22-3.84 3.33-5.77 1.44 3.84 2.75 7.72 3.94 11.65 1.31-.85 1.87-2.65 2.14-4.37.32-2.1.44-4.12 1.34-5.96.62.96 1.15 2.03 1.71 3.05-.58-5.7 1.27-11.47-.33-16.99M773.97 153.87c5.81-1.92 10.62-6.83 12.9-13.15l-9.12-.3c-.34-4.29-1.45-8.57-3.23-12.49-1.34 3.01-2.86 5.9-4.57 8.64-.55-2.18-1.37-4.29-2.41-6.26-.25 1.92-.49 3.84-.74 5.75-.59-2.86-1.88-5.59-3.68-7.79-1.12 1.85-1.87 3.96-2.56 6.09-.79 2.43-1.52 4.93-1.63 7.56-.11 2.64.45 5.45 1.99 7.57M782.91 168.83a98.303 98.303 0 0 0-11.46-9.07M778.37 173.52c-3.06-3.14-6.06-6.35-8.98-9.65"/><path fill="none" stroke="#bd393f" stroke-linejoin="round" stroke-width="2" d="M765.51 161.46c-2.31 5.34-1.96 12.22-5.24 16.81M757.99 160.09c-5.32.31-10.57 1.21-15.66 2.67M757.76 155.02c-6.19-3.73-13.04-5.86-19.85-6.15M774.65 144.69c-1.52 2.39-3.49 4.4-5.74 5.89M767.23 140.86c-.22 2.44-.86 4.79-1.87 6.89M800.67 150.23c-6.59 1.59-13.18 3.19-19.77 4.78M798.43 141.6c-4.49 1.09-8.8 2.94-12.74 5.47M756.41 144.88a94.62 94.62 0 0 0-12-13"/></g></g></g><g style="animation-name:eaf-10a55-6,eaf-10a55-7,eaf-10a55-8;animation-composition:replace,add,add" transform="matrix(.1 0 0 .1 -.413 .002)"><path fill="#383838" d="M651.666 117.105c4.25.26 8.25 2 11.37 5.04 1.91 1.82 3.39 3.99 4.34 6.34l53.13 104.17c1.65 3.04 2.52 6.42 2.43 9.9l-1.22 35.25c-.26 9.46-7.55 17.1-16.84 17.88l-21.44 1.91-1.22 35.51c-.35 9.46-7.64 17.1-16.93 17.88l-1.82.17c.17.35.35.61.52.95 1.64 3.47 3.36 6.94 5.04 10.42.17.43.35.78.52 1.22 3.82 9.38 5.47 18.66 5.12 28.47-.35 9.9-2.69 19.71-6.94 29-.09.26-.26.52-.35.78a87.384 87.384 0 0 1-17.1 23.01c-.26.17-.43.35-.61.52-7.64 6.68-15.54 11.89-23.96 16.06-.26.09-.43.26-.69.35-9.9 4.25-19.62 6.94-29.08 7.73-2.43.35.17.35-7.38.35s-15.19-1.04-22.48-3.13c-.09-.09-.26-.09-.35-.09-9.2-2.78-17.28-7.21-24.65-13.28-7.21-5.73-12.76-12.85-16.75-21.27-.35-.61-.61-1.22-.95-1.91-.35-.69-.69-1.39-1.04-2.08-.35-.69-.69-1.39-1.04-2.08-.35-.69-.69-1.39-1.04-2.08-.35-.69-.69-1.39-1.04-2.08-.35-.69-.69-1.39-1.04-2.08-.35-.69-.69-1.39-1.04-2.08-.35-.69-.69-1.39-1.04-2.08-.35-.69-.69-1.39-1.04-2.08-.35-.69-.69-1.39-1.04-2.08-.35-.69-.69-1.39-1.04-2.08-.35-.69-.69-1.39-1.04-2.08-.35-.69-.69-1.39-1.04-2.08-.35-.61-.69-1.39-1.04-2.08-.35-.61-.69-1.3-1.04-2-.35-.69-.69-1.39-1.04-2.08-.35-.69-.69-1.39-1.04-2.08-.35-.69-.69-1.39-1.04-2.08l-1.04-2.08c-.35-.61-.69-1.3-1.04-2-.35-.69-.69-1.39-1.04-2.08-.35-.61-.69-1.3-1.04-2-.17-.26-.35-.43-.35-.61-1.04 8.59-7.99 15.45-16.75 16.23l-197.93 17.28h-1.56c-.95 0-3.65-.09-4.51-.17l-.35 11.37c-.26 9.38-7.55 17.1-16.84 17.88l-38.81 3.39h-1.56c-4.51 0-8.85-1.65-12.24-4.69-1.82.87-3.82 1.39-5.9 1.56l-127.44 11.11h-1.56c-4.77 0-9.29-1.82-12.76-5.12-1.82-1.82-3.3-3.99-4.25-6.34l-52.16-104.06a19.412 19.412 0 0 1-2.43-9.9l3.99-153.31c.35-9.38 7.55-17.1 16.84-17.88l110.42-9.64h1.56c4.69 0 9.2 1.82 12.67 5.12 1.91 1.74 3.3 3.82 4.25 6.08.43.69.78 1.39 1.04 2.08.17.26.35.61.52.95l1.56-42.71c.26-9.46 7.55-17.19 16.84-17.97l39.87-3.48c8.06-.7 15.73 3.65 19.25 10.94l7.28 15.03c.35.61.61 1.22.87 1.82l.61-17.54c.26-9.38 7.55-17.1 16.84-17.88l151.31-13.2h1.91c2.6 0 4.95.52 7.21 1.48l-.26-.43c-.35-.69-.69-1.3-1.04-2.08-.35-.69-.69-1.39-1.04-2.08-.35-.69-.69-1.3-1.04-2.08-1.3-2.52-2.34-5.3-2.78-8.25l-4.69-29.78c-2-12.85 6.34-25.61 19.01-29.08 2.17-.52 1.07-.51 6.68-.87 9.88-.63 18.4 5.82 22.22 14.41.43.61.69 1.39 1.04 2.08 1.04 2.08 2.08 4.17 3.13 6.25.35.69.69 1.39 1.04 2.08l.78 1.56.35-11.37c.43-13.2 10.68-23.96 23.7-25.09h2.17c6.68 0 12.94 2.69 17.54 7.47 2 2.08 3.56 4.43 4.69 7.03.43.69.69 1.39 1.04 2.08 1.39 2.77 2.79 5.56 4.17 8.33.26.43.52.95.78 1.48l1.13-5.04c2.69-11.89 13.28-20.57 25.35-20.57.87 0 1.65.09 2.52.17 6.86.69 13.2 4.25 17.19 9.9 1.02 1.39 1.84 2.97 2.57 4.54.38.74.76 1.47 1.15 2.21.3.56.52 1.12.8 1.68.43.69.69 1.39 1.04 2.08 7.34 14.5 14.63 28.99 21.88 43.49.43.61.69 1.3 1.04 2l21.18-1.91h2c7.71.09 14.27 4.86 17.01 11.64.29.58.57 1.15.85 1.73l19.47 38.8.02.01z"/><path fill="#fff" d="m61.517 297.755 89.85-7.81-1.13 34.46-127.44 11.11 5.38-152.35 110.42-9.64-1.22 34.46-72.92 6.34-2.95 83.43h.01zm151.49-93.75 38.02-3.3-1.22 35.25-38.02 3.3-2.95 84.82-38.8 3.39 7.03-200.28 38.8-3.39-2.86 80.3v-.09z"/><path fill="#fff" d="m430.037 277.705-199.58 17.19 2.95-34.38 79.52-6.94.95-27.26-56.08 4.86 3.99-115.29 151.57-13.2-3.99 115.29-56.6 4.95-.95 27.26 79.52-6.94-1.22 34.46h-.09.01zm-57.3-90.89 1.65-46.36-76.31 6.68-1.65 46.36 76.31-6.6v-.09.01z"/><path fill="#f8e352" d="M487.857 63.365c-3.65.35-6.51-2.34-6.42-6.08l1.04-30.82c.17-3.65 3.21-6.86 6.86-7.21 3.65-.35 6.51 2.34 6.42 6.08l-1.13 30.82c-.09 3.65-3.21 6.86-6.86 7.21h.09z"/><path fill="#fff" d="M481.077 231.865c-9.03.78-17.54 0-25.35-3.04-7.9-2.52-14.58-6.68-19.97-12.24-5.9-5.04-10.42-11.55-13.37-19.19-3.47-7.64-4.77-15.97-4.43-25.26.35-9.03 2.26-17.62 6.25-25.87 3.47-8.25 8.51-15.54 14.84-22.14 5.82-6.08 12.85-11.11 21.01-15.54 8.07-3.82 16.67-6.51 25.7-7.29 9.03-.78 17.71.35 25.61 2.78 7.81 3.04 14.58 6.94 20.23 11.98 5.64 5.56 9.9 12.07 13.37 19.71 2.95 7.64 4.51 15.97 4.17 25-.35 9.29-2.43 17.97-5.99 26.13-3.99 8.25-8.77 15.54-14.76 21.62-6.08 6.6-13.2 11.98-21.27 15.8-8.16 4.43-16.93 6.77-25.96 7.55h-.09.01zm3.39-96.7c-4.25.35-7.99 1.48-11.46 3.39-3.82 1.91-6.86 4.51-9.55 7.64-2.78 3.13-5.04 6.77-6.51 10.59-1.74 4.17-2.69 8.16-2.78 12.15-.17 4.51.43 8.42 1.91 11.98 1.22 3.82 3.21 7.12 5.73 9.55 2.6 2.95 5.38 5.04 9.03 6.34 3.47 1.3 7.12 1.74 11.37 1.39 3.99-.35 7.73-1.48 11.46-3.39 3.56-1.91 6.77-4.51 9.55-7.99 2.69-2.86 4.95-6.51 6.68-10.68 1.48-3.82 2.43-7.9 2.6-12.33.09-3.99-.52-7.9-1.74-11.72-1.48-3.56-3.47-6.86-6.08-9.55a24.531 24.531 0 0 0-9.03-6.08c-3.65-1.3-7.38-1.74-11.37-1.39l.17.09.02.01zM610.426 226.395l-39.06 3.39 4.95-142.28 39.06-3.39-1.91 55.13 37.77-3.3-1.22 35.24-37.76 3.3-1.83 51.91z"/><path fill="#f8e352" d="M440.367 72.305c3.65-.95 6.08-4.69 5.56-8.16l-4.6-29.78c-.61-3.56-3.99-5.64-7.64-4.6-3.65.95-6.08 4.6-5.56 8.16l4.69 29.78c.52 3.56 3.91 5.64 7.55 4.6zM535.506 64.065c-3.56-.35-5.82-3.65-5.04-7.29l6.77-30.73c.78-3.65 4.34-6.34 7.99-5.99 3.56.35 5.82 3.65 4.95 7.29l-6.77 30.73c-.78 3.65-4.34 6.34-7.9 5.99z"/><path fill="#fff" d="M599.236 264.595c-2.96-6.07-7.04-11.46-12.16-16.06-5.64-4.25-11.98-7.38-19.01-9.98-7.38-2-15.02-2.95-23-2.26-8.51.7-16.24 2.95-23.53 6.25-7.55 3.91-13.8 8.16-19.27 13.37-5.73 5.56-10.25 11.72-13.37 18.32-3.47 7.12-5.3 14.15-5.56 21.61-.26 7.64 1.04 14.68 4 21.01 2.77 6.08 6.77 11.55 12.24 15.8 5.12 4.26 11.11 7.73 18.4 9.99 7.12 2.08 14.76 3.03 23.27 2.25 7.98-.69 15.71-2.95 23.26-6.25a84.48 84.48 0 0 0 9.29-5.29c1.63-1.07 3.22-2.19 4.77-3.38 1.99-1.48 3.93-3.05 5.82-4.7.14-.13.27-.26.4-.39.9-.87 1.78-1.77 2.62-2.7 2.71-2.96 5.12-6.16 7.24-9.55.51-.79.99-1.59 1.45-2.4.58-.99 1.13-1.99 1.66-3.01 3.21-6.86 5.04-14.15 5.3-21.79.26-7.47-1.13-14.24-3.82-20.84zm-56.69 47.75c-6.95.61-12.5-1.04-16.84-4.86-4.69-3.82-6.6-8.68-6.43-14.76h-.08c.17-5.82 2.51-11.11 7.46-15.71 4.69-4.6 10.33-7.21 17.28-7.82 6.42-.52 12.24 1.04 16.84 4.86 4.43 3.82 6.6 8.69 6.42 14.5-.04 1.34-.19 2.65-.47 3.91-.38 1.79-.99 3.49-1.82 5.13-.14.28-.28.56-.44.83-.56 1.01-1.2 1.99-1.92 2.94-.71.92-1.49 1.83-2.35 2.7-.15.16-.3.31-.46.47-.75.71-1.52 1.37-2.31 1.97-4.37 3.4-9.44 5.4-14.88 5.84z"/></g><g opacity="0" style="animation-name:eaf-10a55-9" transform="matrix(.1 0 0 .1 -.65 2.802)"><path fill="#383838" d="M668.996 342.445c-29.15-3.63-19.42-39.89-21.37-60.42-.91-25-4.49-60.01 8.66-81.98 4.74-7.57 12.47-12.12 18.95-17.41 2.78-2.31 4.74-4.52 5.48-7.02.95-3.01.05-6.59-1.5-10.83-1.73-4.67-3.7-9.49-4.93-14.37-1.87-7.08-1.95-15.2-1.85-23.19.16-7.15.5-14.45 2.58-21.31 4.3-16.23 20.62-23.79 32.07-34.41 12.18-10.78 19.05-24.77 36.25-28.4 16.77-4.17 32.76 4.14 47.58 10.96 10.9 4.66 22.89 6.79 32.73 13.73 18.73 13 26.98 35.51 36.23 55.38 3.98 8.01 7.19 16.37 10.25 24.76 12.47 28.73 3.33 58.37-14.89 82.18-7.29 9.66-15.35 19.2-25.69 25.63-5.53 3.15-11.92 4.94-18.24 6.42-6.44 1.51-12.09 2.86-14.29 4.22-3.3 1.69 1.31 4.04 4.6 5.33 5.57 2.29 14.03 5.33 18.55 10.7 10.51 11.85.87 28.01-11.5 34.23-14.63 7.89-31.34 7.54-47.98 5.53-10.31-1.22-20.65-3.67-30.43-2.91-5.83.4-11.51 1.91-16.86 4.28-14.33 6.26-27.87 19.99-44.24 18.89h-.18l.02.01zm38.67-117.86c-5.36 3.21-4.86 33.8 3.27 33.55 2.47-.27 5.17-4.43 6.36-10.69 1.07-5.56.67-11.83-1.5-17.03-1.36-3.19-4.36-7.99-8.03-5.9l-.1.07z"/><g transform="translate(4.127 -.005)"><path fill="#278064" d="M761.79 225.92c-5.11 9.04-11.03 18.78-20.15 21.52-.68.2-1.42.36-2.08.08-.85-.37-1.33-1.37-1.74-2.3-4.54-10.44-7.91-21.54-10.01-32.95-.4-2.19-.72-4.61.29-6.53 1.06-2.01 3.36-2.82 5.41-2.55 2.05.27 3.92 1.4 5.74 2.52 6.4 3.94 12.8 7.87 19.2 11.81"/><path fill="none" stroke="#278064" stroke-linejoin="round" stroke-width="5" d="M761.26 180.06c-8.33 61.26-45.89 116.3-95.93 140.59"/><path fill="#278064" d="M786.34 300.46c-3.7.77-7.48 1.1-11.23 1.08-10.75-.03-21.33-2.68-31.89-4.69-10.64-2.03-21.51-3.59-32.28-1.96-2.86.43-6.27.87-8.17-1.61 3.64-5.5 9.83-7.87 15.73-9.37 11.66-2.97 23.38-3.33 35.25-2.18 10.79 1.05 20.35 5.5 30.68 8.77 2.99.95 6.05 1.39 9.14 1.59 2.68.17 6.64-.66 8.96.55-3.51 4.19-11.24 6.79-16.19 7.82zM667.06 221.18c-2.45 15.61-1.97 30.96-1.28 46.74.69 15.76 2.11 31.47 4.25 47.06.1.72.31 1.58.92 1.77.52.16 1.02-.27 1.41-.69 6.05-6.42 7.78-16.45 8.66-25.81 2.02-21.38 2.96-44.01-1.41-65.09-.39-1.87-6.26-20.38-6.29-20.35-4.01 4-5.33 10.39-6.27 16.37h.01z"/><g><path fill="#e0414e" d="M778.65 77.27c-.17.48 2.98 5.89 3.32 6.81.83 2.29 1.51 4.75 2.09 7.13 1.18 4.82.1 9.53-.45 14.43a273.48 273.48 0 0 0 20.7-23.59c2.6 6.09.98 13.21-.68 19.6 3.92-1.7 7.45-4.5 10.2-8.08 1.32 5.44.54 11.43-2.09 16.09 4.19-.9 8.18-2.86 11.6-5.7.48 7.57-2.28 13.3-3.56 20.33 2.33.57 4.16 1.56 6.39 2.41 1.45.55 2.97.88 4.43 1.39.8.28 3.3 1.8 4.02 1.56-6 1.97-11.42 5.49-16.77 8.99-1.25.81-2.5 1.63-3.65 2.59 5.89.8 11.87 1.61 17.56 3.98 1.35.56 11.64 6.85 12.38 5.84-2.21 3.02-8.46 6.96-11.66 8.59 8.16 4.22 13.42 7.93 19.35 15.76-6.31 2.99-12.9 5.33-19.7 6.98 4.8 4.16 9.27 8.86 13.3 13.98-3.93-1.01-7.95-1.02-11.69-.04 3.3 4.14 5.46 9.39 6.04 14.68-10.9-.95-21.7-18.6-32.52-21.59 9.21 12.14 17.03 31.14 13.61 45.27-4.04-3.47-8.03-15.75-12.68-17.71 1.59 8.46 1.21 17.14-1.09 24.88-4.66-5.51-9.79-10.54-15.25-14.95-1.54 5.35-3.07 10.7-4.61 16.05-4.15-4.96-7.7-10.57-10.48-16.56-2.25 4.6.51 16.44-2.52 20.37-.89 1.16-17.25-31.23-20.14-37.42-3.14 5.21-9.69 14.5-14.22 20.68-.78-5.12-1.55-10.25-2.33-15.37-4.24.33-8.49.67-12.73 1 .68-4.68 1.37-9.37 2.05-14.05-6.29 3.85-14.08 4.88-21.56 2.84.43-6.8 3.32-13.05 7.88-17.03-3.58-2.49-7.66-3.91-11.65-4.05 3.22-7.15 9.68-14.7 15.66-18.93-7.65-8.25-18.64-12.84-28.49-15.99 2.57-5.66 7.49-9.67 13.18-10.73-2.75-3.4-6.05-6.25-9.64-8.3 3.68.17 7.37.34 11.05.52-3.14-7.32-8.15-13.78-14.18-18.32 8.36-2.08 19.31-1.74 26.8 4.49-1.05-4.98-9.13-13.81-12.3-17.7 9.16-.68 25.29 7.62 33.39 13.84-6.31-15.12-2.44-23.08-9.69-32.39 4.16.84 8.25 2.81 11.83 5.69.48-7 .14-14.17-.98-21.29 4.88 5.16 9.77 10.32 14.65 15.48 2.19-5.15 4.39-10.31 6.58-15.46 5.9 7.86 11.14 16.32 15.61 25.21 1.21-4.07 2.42-8.14 3.63-12.22l.01.01z"/><path fill="none" stroke="#bd393f" stroke-linejoin="round" stroke-width="2" d="M792.84 160.21c8.78-1.04 17.75-.78 26.63.77-2.07-3.11-4.83-5.63-7.93-7.23 2.38-1.73 4.94-3.16 7.63-4.27-3.59-2.22-7.41-3.92-11.32-5.02 2.28-3.56 3.44-8.07 3.25-12.62a34.413 34.413 0 0 1-9.38 4.23c1.92-4.18 2.55-9.19 1.78-14.02-2.87 4.09-7.73 5.51-11.99 7.61-5.12 2.52-9.7 6.31-13.35 11.04M771.38 179.88c2.54 1.57 3.26 5.28 3.58 8.47.8 8.1.95 16.23.44 24.25-2.31-3.25-4.61-6.5-6.92-9.74-3.6 4.79-9.02 7.72-14.74 7.95 2.35-5.09 3.47-10.98 3.21-16.92-3.07 2.41-6.4 4.4-9.92 5.91 1.33-4.17 2.46-8.43 3.37-12.77a66.07 66.07 0 0 1-12.09 2.34c3.59-10.11 10.25-18.57 18.66-23.72M783.15 133.98c3.27-10.23 1.21-22.04-5.11-29.33-.53 2.57-1.2 5.12-1.99 7.62-1.86-5.79-5.32-10.77-9.8-14.1a67.759 67.759 0 0 1-5.04 15.38c-.34-3.23-1.63-6.24-3.6-8.46-.32 2.83-.63 5.66-.95 8.49-1.43-3.78-3.49-7.2-6.04-10.05-1.9 13.36.84 27.12 7.48 37.59"/><path fill="none" stroke="#bd393f" stroke-linejoin="round" stroke-width="2" d="M800.25 160.72c7.41 6.18 15.18 12.86 18.87 22.33-.36-.92-5.08-2.41-6.01-2.85-2.02-.95-4.3-1.17-6.43-1.16 2.08 3.57 4.4 6.97 6.95 10.15-4.18-1.93-8.65-2.91-13.05-2.87a74.86 74.86 0 0 1 5.13 17.36c.24 1.43.43 2.94-.04 4.23-3.47-4.54-6.78-7.83-11.27-10.92.11 4.59-.05 9.17-.47 13.69-.08.87-.24 1.86-.91 2.26-2.64-4.56-5.7-8.83-9.11-12.71.42 2.94 0 5.97-1.19 8.5a91.588 91.588 0 0 0-7.9-12.29M749.77 171.28c-6.18 0-13.65-.06-19.84.08 1.99-2.47 3.98-4.95 5.97-7.42-4.23-1.64-8.47-3.27-12.7-4.91 3.66-1.91 7.32-3.77 11.01-5.58-2.96-.97-5.91-1.94-8.87-2.91 2.04-1.74 4.56-2.67 6.95-2.57a54.837 54.837 0 0 0-9.08-6.03c1.99-3.54 6.25-3.93 9.69-3.61 7.11.66 14.03 2.43 20.52 5.24"/><path fill="none" stroke="#bd393f" stroke-linejoin="round" stroke-width="2" d="M750.1 118.87c-5.05-4.91-11.51-7.85-17.93-8.16 2.85 4.53 5.71 9.08 7.9 14.04-3.09-2.37-6.53-4.13-10.08-5.15 2.56 2.73 4.84 5.8 6.77 9.12-3.63-2.57-7.35-4.96-11.16-7.16 1.58 2.55 7.75 14.43 9.34 16.98M782.84 157.17c8.35 1.03 16.47 6.47 21.52 14.42l-6.86-1.57c1.14 3.54 1.64 7.29 1.47 10.95-.02.35-.09.76-.38.84-.17.05-.36-.05-.52-.14-2.65-1.49-5.3-2.99-7.95-4.48 1.18 2.79 1.49 5.98.88 8.85-2.12-2.42-4.23-4.85-6.35-7.27 1 2.59 1.5 5.4 1.46 8.15-3.3-3.25-6.59-6.51-9.89-9.76-3.28-3.24-6.66-6.61-8.58-11"/><path fill="none" stroke="#bd393f" stroke-linejoin="round" stroke-width="2" d="M757.68 163.87c-4.19 4.67-6.23 11.73-5.39 18.64 1.09-.89 2.29-1.6 3.57-2.1.41 3.35 1.43 6.66 2.97 9.65 1.11-1.92 2.22-3.84 3.33-5.77 1.44 3.84 2.75 7.72 3.94 11.65 1.31-.85 1.87-2.65 2.14-4.37.32-2.1.44-4.12 1.34-5.96.62.96 1.15 2.03 1.71 3.05-.58-5.7 1.27-11.47-.33-16.99M773.97 153.87c5.81-1.92 10.62-6.83 12.9-13.15l-9.12-.3c-.34-4.29-1.45-8.57-3.23-12.49-1.34 3.01-2.86 5.9-4.57 8.64-.55-2.18-1.37-4.29-2.41-6.26-.25 1.92-.49 3.84-.74 5.75-.59-2.86-1.88-5.59-3.68-7.79-1.12 1.85-1.87 3.96-2.56 6.09-.79 2.43-1.52 4.93-1.63 7.56-.11 2.64.45 5.45 1.99 7.57M782.91 168.83a98.303 98.303 0 0 0-11.46-9.07M778.37 173.52c-3.06-3.14-6.06-6.35-8.98-9.65"/><path fill="none" stroke="#bd393f" stroke-linejoin="round" stroke-width="2" d="M765.51 161.46c-2.31 5.34-1.96 12.22-5.24 16.81M757.99 160.09c-5.32.31-10.57 1.21-15.66 2.67M757.76 155.02c-6.19-3.73-13.04-5.86-19.85-6.15M774.65 144.69c-1.52 2.39-3.49 4.4-5.74 5.89M767.23 140.86c-.22 2.44-.86 4.79-1.87 6.89M800.67 150.23c-6.59 1.59-13.18 3.19-19.77 4.78M798.43 141.6c-4.49 1.09-8.8 2.94-12.74 5.47M756.41 144.88a94.62 94.62 0 0 0-12-13"/></g></g></g></g></g></svg>