<svg xmlns="http://www.w3.org/2000/svg" xmlns:xlink="http://www.w3.org/1999/xlink" width="72" height="48"><defs><linearGradient id="A" gradientUnits="userSpaceOnUse"><stop offset="0" stop-color="#ffe218"/><stop offset="1" stop-color="#ef9c35"/></linearGradient><linearGradient xlink:href="#A" id="B" x1="25.937" y1="36" x2="25.937" y2="45.854" spreadMethod="pad"/><linearGradient xlink:href="#A" id="C" x1="50.257" y1="36" x2="50.257" y2="45.954"/><linearGradient xlink:href="#A" id="D" x1="25.937" y1="36" x2="25.937" y2="45.854" spreadMethod="pad"/><linearGradient xlink:href="#A" id="E" x1="50.257" y1="12" x2="50.257" y2="21.954"/><path id="F" d="M35.937 26c-.451.01-.897.281-1.078.728l-2.484 5.105-5.427.821c-.46.091-.828.456-.92.912-.184.456-.091.91.277 1.275l3.955 4.012-.92 5.653c-.092.456.092 1.001.46 1.275s.918.275 1.286.093l4.85-2.721z"/><path id="G" d="M11.937 25c.4 0 .7.2.9.6l2.8 6 6.4 1c.4.1.7.3.8.7s0 .8-.3 1l-4.6 4.8 1.1 6.6c.1.4-.1.8-.4 1-.3.3-.7.3-1 .1l-5.7-3.1-5.7 3.1c-.3.2-.7.2-1-.1-.3-.2-.5-.6-.4-1l1.1-6.6-4.6-4.8c-.3-.2-.4-.6-.3-1s.4-.6.8-.7l6.4-1 2.8-6c.2-.4.5-.6.9-.6zm0 3.4l-2.2 4.6c-.1.3-.4.5-.7.6l-4.9.7 3.5 3.7c.3.2.4.6.3.9l-.8 5.1 4.3-2.4a.91.91 0 0 1 1 0l4.3 2.4-.8-5.1c-.1-.3 0-.7.3-.9l3.5-3.7-4.9-.7c-.3-.1-.6-.3-.7-.6z"/></defs><use xlink:href="#F" fill="url(#B)"/><g fill-rule="evenodd"><path d="M61.358 26.729c-.183-.456-.642-.729-1.101-.729s-.917.273-1.101.729l-2.477 5.105-5.413.82c-.459.091-.826.456-.917.912-.183.456-.092.912.275 1.276l3.945 4.011-.917 5.652c-.092.456.092 1.003.459 1.276s.917.273 1.284.091l4.862-2.735 4.862 2.735c.367.182.917.182 1.284-.091.367-.365.55-.82.459-1.276l-.917-5.652 3.945-4.011c.367-.365.459-.82.275-1.276-.092-.456-.459-.82-.917-.912l-5.505-.82z" fill="url(#C)"/><g fill="#e7e7db"><use xlink:href="#G"/><use xlink:href="#G" x="48"/><use xlink:href="#G" x="23.938"/></g></g><use xlink:href="#F" y="-24" fill="url(#D)"/><g fill-rule="evenodd"><path d="M61.358 2.729C61.174 2.273 60.716 2 60.257 2s-.917.273-1.101.729l-2.477 5.105-5.413.82c-.459.091-.826.456-.917.912-.183.456-.092.912.275 1.276l3.945 4.011-.917 5.652c-.092.456.092 1.003.459 1.276s.917.273 1.284.091l4.862-2.735 4.862 2.735c.367.182.917.182 1.284-.091.367-.365.55-.82.459-1.276l-.917-5.652 3.945-4.011c.367-.365.459-.82.275-1.276-.092-.456-.459-.82-.917-.912l-5.505-.82z" fill="url(#E)"/><g fill="#77774c"><path d="M11.937 1c.4 0 .7.2.9.6l2.8 6 6.4 1c.4.1.7.3.8.7s0 .8-.3 1l-4.6 4.8 1.1 6.6c.1.4-.1.8-.4 1-.3.3-.7.3-1 .1l-5.7-3.1-5.7 3.1c-.3.2-.7.2-1-.1-.3-.2-.5-.6-.4-1l1.1-6.6-4.6-4.8c-.3-.2-.4-.6-.3-1s.4-.6.8-.7l6.4-1 2.8-6c.2-.4.5-.6.9-.6zm0 3.4L9.738 9c-.1.3-.4.5-.7.6l-4.9.7 3.5 3.7c.3.2.4.6.3.9l-.8 5.1 4.3-2.4a.91.91 0 0 1 1 0l4.3 2.4-.8-5.1c-.1-.3 0-.7.3-.9l3.5-3.7-4.9-.7c-.3-.1-.6-.3-.7-.6z"/><use xlink:href="#G" x="48" y="-24"/><use xlink:href="#G" x="23.938" y="-24"/></g></g></svg>